PathFileType	4	(X/Y/Z)	C:/Users/beibeiliu/ov580/test_trc\sequence.5_training_dense_right.trc
DataRate	CameraRate	NumFrames	NumMarkers	Units	OrigDataRate	OrigDataStartFrame	OrigNumFrames
120	120	8	19	mm	120	85	336
Frame#	Time	ThumbCMC			ThumbMCP			ThumbIP			ThumbTip			IndexMCP			IndexPIP			IndexTip			MiddleMCP			MiddlePIP			MiddleTip			RingMCP			RingPIP			RingTip			PinkyMCP			PinkyPIP			PinkyTip			BackHand1			BackHand2			BackHand3	
		X0	Y0	Z0	X1	Y1	Z1	X2	Y2	Z2	X3	Y3	Z3	X4	Y4	Z4	X5	Y5	Z5	X6	Y6	Z6	X7	Y7	Z7	X8	Y8	Z8	X9	Y9	Z9	X10	Y10	Z10	X11	Y11	Z11	X12	Y12	Z12	X13	Y13	Z13	X14	Y14	Z14	X15	Y15	Z15	X16	Y16	Z16	X17	Y17	Z17	X18	Y18	Z18	
84	0.7	185.321	20.9267	-5.84874	152.484	23.9732	-1.76344	126.868	20.39	-2.57344	111.614	6.25593	-1.62394	141.621	10.5512	-55.8805	116.126	7.8497	-57.1905	92.3852	10.901	-53.2611	134.454	-8.40172	-42.1626	112.332	-1.99498	-19.4574	134.866	2.06528	4.06671	131.968	-20.1628	-27.1923	124.507	-14.4151	-1.59712	147.734	-1.54568	8.09693	142.143	-37.241	-15.8292	135.504	-22.7372	5.99377	156.879	-8.81697	7.47982	183.115	-26.1247	-30.803	206.584	-27.1516	-14.6225	195.388	-4.73678	-28.7972	
85	0.708333	183.543	22.64	-8.05553	151.503	27.6463	-2.6209	128.684	18.3683	-5.1818	108.955	7.39101	-3.22536	145.975	8.92049	-56.5908	122.343	8.13	-65.4117	97.6677	8.52993	-69.1902	131.133	-6.24924	-45.1076	111.999	-3.64	-25.7351	134.903	6.29251	0.668864	132.094	-23.3812	-25.9721	124.282	-9.38877	-6.67797	148.66	-2.89065	9.36419	139.107	-33.0032	-14.2848	135.131	-19.3418	3.72714	159.961	-6.69123	4.37682	185.827	-25.1276	-27.5716	208.097	-24.2756	-9.71936	199.349	-3.24626	-25.8617	
86	0.716667	182.243	26.0517	-8.71439	150.451	31.2478	-2.27844	124.373	22.4339	-7.16636	107.546	8.49945	-4.72239	145.727	9.25099	-61.0914	127.47	8.06739	-68.2713	101.398	4.99742	-78.597	133.555	-8.56747	-46.9483	111.364	-1.8308	-26.4705	133.873	8.67932	-3.35388	130.494	-21.4049	-27.4817	124.768	-5.57065	-6.78681	149.205	2.93617	4.16777	139.997	-31.4977	-16.0205	134.48	-14.5059	0.825848	156.029	-3.70572	5.21971	183.288	-24.7672	-27.736	208.147	-23.8417	-12.2571	197.195	-0.738901	-29.5611	
87	0.725	182.899	27.2362	-6.22719	146.663	28.9824	-5.25457	122.237	21.6281	-7.03371	105.931	2.70159	-7.2649	146.588	8.77517	-61.0652	128.519	8.7251	-70.3697	108.259	10.4089	-82.2855	131.349	-6.28911	-48.1159	111.324	1.20453	-30.0251	129.253	6.69186	-3.84762	131.541	-19.2943	-29.8635	123.623	-8.06925	-6.37294	145.77	2.15717	4.7471	139.128	-32.8196	-15.6279	134.038	-15.7549	0.0343314	157.975	-5.79603	6.81973	185.94	-24.7807	-27.3122	204.735	-20.1102	-11.4065	197.748	1.9211	-25.5398	
88	0.733333	181.574	28.7537	-3.82567	144.578	31.0231	-1.29625	124.429	18.8352	-5.05561	109.564	-0.998538	-6.29437	146.277	9.55124	-58.8011	124.202	7.10149	-71.7311	102.545	9.31238	-81.2594	131.532	-10.1804	-46.9432	110.172	-4.28772	-29.9564	128.397	7.67494	-3.17135	131.326	-16.9855	-29.8935	123.826	-6.88903	-6.37328	148.664	-0.626382	7.38699	141.048	-31.529	-18.6763	133.865	-17.1977	2.1757	158.488	-4.80513	6.39456	182.321	-19.568	-28.9275	204.499	-15.7008	-13.4159	196.141	5.85251	-27.2026	
89	0.741667	175.682	27.8142	-5.92258	143.628	27.5283	0.750462	119.968	16.3368	-3.23513	109.331	-2.11301	-2.66346	142.925	11.0109	-56.4925	122.38	10.9825	-66.4393	96.5113	3.48546	-72.9876	132.727	-10.4539	-44.2619	109.235	-4.27234	-25.6263	129.414	6.84433	-2.28306	131.16	-19.6369	-28.4102	122.939	-12.9639	-5.81103	144.634	0.558339	6.23675	140.604	-35.2312	-15.1745	132.302	-19.9244	0.495916	152.977	-6.00724	8.99307	185.379	-21.474	-25.5698	204.569	-17.2763	-11.23	193.483	8.48105	-28.7491	
90	0.75	174.303	29.5026	-1.71326	138.818	25.0347	2.24551	116.607	11.8244	-1.50578	103.719	-7.80339	0.237022	137.999	11.4392	-55.2055	116.285	3.60527	-59.2422	91.0694	2.28154	-57.2166	133.203	-12.7202	-42.1073	109.024	-8.35366	-23.1265	125.946	1.2664	1.40916	134.266	-25.7293	-26.0085	124.388	-13.4323	-1.171	147.898	-3.4435	8.92857	143.586	-36.2283	-14.5379	134.8	-24.3721	5.89685	152.513	-8.85863	8.90939	182.799	-18.3707	-27.3324	207.619	-10.2339	-8.60746	192.276	10.875	-27.3514	
91	0.758333	172.334	25.7464	-0.193597	136.339	21.3137	5.08283	120.39	8.47788	5.63062	103.006	-9.97704	4.23601	134.566	5.38069	-49.2057	106.375	0.735975	-49.4111	86.4786	-3.48785	-35.1605	130.308	-14.4953	-38.7943	109.41	-13.2201	-15.1638	129.489	-2.12681	5.26353	133.052	-26.9932	-24.4454	124.998	-20.1048	3.00167	145.043	-6.14617	10.3612	145.898	-41.6963	-12.2461	136.833	-26.0961	7.16119	153.411	-11.0715	10.8373	183.572	-18.8078	-27.2577	207.357	-11.1107	-9.56932	191.424	12.0995	-22.6535	
